<?xml version="1.0" encoding="UTF-8"?>
<svg width="940px" height="300px" viewBox="0 0 940 300" version="1.1" xmlns="http://www.w3.org/2000/svg" xmlns:xlink="http://www.w3.org/1999/xlink">
    <!-- Generator: Sketch 52.6 (67491) - http://www.bohemiancoding.com/sketch -->
    <title>Banner-bg</title>
    <desc>Created with Sketch.</desc>
    <defs>
        <polygon id="path-1" points="0 0 900 0 940 40 940 300 0 300"></polygon>
        <linearGradient x1="100%" y1="50%" x2="0%" y2="50%" id="linearGradient-3">
            <stop stop-color="#666D9E" stop-opacity="0" offset="0%"></stop>
            <stop stop-color="#666D9E" stop-opacity="0.508600917" offset="21.9720918%"></stop>
            <stop stop-color="#666D9E" offset="51.1921965%"></stop>
            <stop stop-color="#666D9E" stop-opacity="0.635076993" offset="82.5641257%"></stop>
            <stop stop-color="#666D9E" stop-opacity="0" offset="100%"></stop>
        </linearGradient>
    </defs>
    <g id="Page-1" stroke="none" stroke-width="1" fill="none" fill-rule="evenodd">
        <g id="Rethought_blog" transform="translate(-258.000000, -182.000000)">
            <g id="MAIN_BANNER" transform="translate(258.000000, 182.000000)">
                <g id="Banner-bg">
                    <mask id="mask-2" fill="white">
                        <use xlink:href="#path-1"></use>
                    </mask>
                    <use id="Mask" fill="#666D9E" fill-rule="nonzero" xlink:href="#path-1"></use>
                    <g id="Group-73" mask="url(#mask-2)" stroke-linecap="round" stroke-width="2">
                        <g transform="translate(-268.000000, -223.000000)">
                            <path d="M36.9087,572.638823 C84.5287,550.358354 361.3257,428.448615 647.7147,462.80101 C962.5077,500.559552 1074.5927,677.555437 1367.9217,663.396479 C1658.4717,649.370125 1792.1477,492.100594 1931.3957,491.415802" id="Stroke-3" stroke="#63BDEB" stroke-dasharray="0,7.991"></path>
                            <path d="M34.5855,526.856146 C82.8105,509.361302 356.9505,416.282083 642.6535,450.552344 C957.4455,488.310885 1077.2045,617.38125 1370.5335,603.221302 C1661.0825,589.195938 1787.5165,454.461198 1926.6255,454.200938" id="Stroke-9" stroke="#64B9E8" stroke-dasharray="0,7.993"></path>
                            <path d="M32.2124,481.160354 C80.8834,468.681708 352.4754,404.103479 637.5924,438.30249 C952.3854,476.06301 1079.8174,557.206865 1373.1474,543.045927 C1663.6994,529.020562 1782.8904,416.815667 1921.8644,416.985682" id="Stroke-15" stroke="#65B4E4" stroke-dasharray="0,7.99"></path>
                            <path d="M29.772,435.537099 C78.686,428.265641 347.865,391.908349 632.532,426.053922 C947.324,463.813453 1082.431,497.031786 1375.76,482.871839 C1666.309,468.846474 1778.257,379.17637 1917.093,379.771109" id="Stroke-21" stroke="#66AFE1" stroke-dasharray="0,7.985"></path>
                            <path d="M27.2739,389.967974 C76.2729,388.035318 343.1479,379.701047 627.4709,413.806047 C942.2629,451.564589 1085.0439,436.857401 1378.3729,422.696464 C1668.9139,408.671099 1773.6229,341.538755 1912.3149,342.556047" id="Stroke-27" stroke="#67ABDE" stroke-dasharray="0,8.010999999999999"></path>
                            <path d="M24.6421,344.427844 C73.3661,347.90326 338.1691,367.462375 622.4101,401.55649 C937.2021,439.316021 1087.6571,376.682323 1380.9861,362.522375 C1671.5281,348.49701 1768.9941,303.89451 1907.5491,305.341281" id="Stroke-33" stroke="#68A6DA" stroke-dasharray="0,8.002000000000001"></path>
                            <path d="M21.9038,298.877026 C70.0768,307.734786 332.9868,355.199161 617.3488,389.30812 C932.1408,427.067651 1090.2688,316.506453 1383.5978,302.347495 C1674.1428,288.32213 1764.3658,266.250464 1902.7858,268.126714" id="Stroke-39" stroke="#69A1D7" stroke-dasharray="0,7.991"></path>
                            <path d="M19.1011,253.293354 C66.5461,267.449344 327.6701,342.919917 612.2881,377.059552 C927.0801,414.819083 1092.8821,256.332365 1386.2111,242.173406 C1676.7471,228.148042 1759.7321,228.608198 1898.0071,230.910958" id="Stroke-45" stroke="#6A9CD3" stroke-dasharray="0,8.010999999999999"></path>
                            <path d="M16.1841,207.632396 C62.5891,226.888698 322.1161,330.611875 607.2271,364.810885 C922.0191,402.569427 1095.4951,196.157187 1388.8241,181.998229 C1679.3681,167.972865 1755.1071,190.964844 1893.2501,193.696094" id="Stroke-51" stroke="#6A97CF" stroke-dasharray="0,7.993"></path>
                            <path d="M13.2359,161.89801 C58.4999,186.057698 316.4789,318.294729 602.1659,352.562021 C916.9589,390.321552 1098.1079,135.982802 1391.4369,121.823844 C1681.9749,107.798479 1750.4749,153.320302 1888.4759,156.481031" id="Stroke-57" stroke="#6B92CB" stroke-dasharray="0,8.003"></path>
                            <path d="M10.2505,116.070802 C54.2405,144.88351 310.7395,305.964917 597.1045,340.314344 C911.8965,378.072885 1100.7215,75.807625 1394.0505,61.6486667 C1684.5825,47.6233021 1745.8435,115.673979 1883.7015,119.266167" id="Stroke-63" stroke="#6C8DC8" stroke-dasharray="0,8.005000000000001"></path>
                            <path d="M7.2446,70.1517604 C49.8726,103.343375 304.9276,293.625406 592.0436,328.064885 C906.8366,365.823427 1103.3336,15.6336354 1396.6626,1.4736875 C1687.1986,-12.5506875 1741.2166,78.0318125 1878.9396,82.0505104" id="Stroke-69" stroke="#6D88C4" stroke-dasharray="0,7.998"></path>
                        </g>
                    </g>
                    <rect id="Rectangle" fill="url(#linearGradient-3)" fill-rule="nonzero" opacity="0.9" mask="url(#mask-2)" x="0" y="0" width="670" height="301"></rect>
                </g>
            </g>
        </g>
    </g>
</svg>