<?xml version="1.0" encoding="UTF-8"?>
<svg width="132px" height="24px" viewBox="0 0 132 24" version="1.1" xmlns="http://www.w3.org/2000/svg" xmlns:xlink="http://www.w3.org/1999/xlink">
    <!-- Generator: Sketch 52.6 (67491) - http://www.bohemiancoding.com/sketch -->
    <title>LOGO Copy</title>
    <desc>Created with Sketch.</desc>
    <g id="Page-1" stroke="none" stroke-width="1" fill="none" fill-rule="evenodd">
        <g id="Rethought_blog" transform="translate(-260.000000, -61.000000)">
            <g id="LOGO-Copy" transform="translate(258.000000, 53.000000)">
                <path d="M16.74722,27 L12.56122,27 L11.20922,21.514 C11.0358858,20.9419971 10.8062214,20.5476677 10.52022,20.331 C10.2342186,20.1143323 9.82255602,20.006 9.28522,20.006 L6.50322,19.98 L6.50322,27 L2.60322,27 L2.60322,9.06 C4.21522806,8.90399922 6.4945386,8.826 9.44122,8.826 C11.8505654,8.826 13.5578816,9.20732952 14.56322,9.97 C15.5685584,10.7326705 16.07122,12.1193233 16.07122,14.13 C16.07122,15.4473399 15.8068893,16.4786629 15.27822,17.224 C14.7495507,17.9693371 13.8698928,18.4199992 12.63922,18.576 L12.63922,18.706 C14.0085602,19.0180016 14.857885,19.9193259 15.18722,21.41 L16.74722,27 Z M6.50322,16.938 L9.36322,16.938 C10.4032252,16.938 11.1138848,16.7603351 11.49522,16.405 C11.8765552,16.0496649 12.06722,15.3780049 12.06722,14.39 C12.06722,13.4019951 11.8808885,12.7346684 11.50822,12.388 C11.1355515,12.0413316 10.4205586,11.868 9.36322,11.868 L6.50322,11.894 L6.50322,16.938 Z M25.990785,21.878 L21.362785,21.878 C21.4841189,22.8140047 21.7657828,23.4423317 22.207785,23.763 C22.6497872,24.0836683 23.3821132,24.244 24.404785,24.244 C25.7741252,24.244 27.3687759,24.1486676 29.188785,23.958 L29.552785,26.35 C28.2181117,26.9913365 26.354797,27.312 23.962785,27.312 C21.5534396,27.312 19.8374568,26.7920052 18.814785,25.752 C17.7921132,24.7119948 17.280785,22.996012 17.280785,20.604 C17.280785,18.0906541 17.7791134,16.3313384 18.775785,15.326 C19.7724567,14.3206616 21.4494399,13.818 23.806785,13.818 C25.9387957,13.818 27.4814469,14.1863296 28.434785,14.923 C29.3881231,15.6596703 29.8734516,16.7819925 29.890785,18.29 C29.890785,19.486006 29.5831214,20.382997 28.967785,20.981 C28.3524486,21.579003 27.3601252,21.878 25.990785,21.878 Z M21.284785,19.564 L24.924785,19.564 C25.3927873,19.564 25.7091175,19.4513345 25.873785,19.226 C26.0384525,19.0006655 26.120785,18.6713355 26.120785,18.238 C26.120785,17.6313303 25.9647866,17.2110012 25.652785,16.977 C25.3407834,16.7429988 24.7687892,16.626 23.936785,16.626 C22.9487801,16.626 22.2727868,16.8209981 21.908785,17.211 C21.5447832,17.6010019 21.3367853,18.3853274 21.284785,19.564 Z M49.315045,16.756 L49.315045,22.814 C49.315045,23.2993358 49.419044,23.6373324 49.627045,23.828 C49.835046,24.0186676 50.1990424,24.114 50.719045,24.114 L52.357045,24.114 L52.773045,26.792 C51.7850401,27.1386684 50.5803854,27.312 49.159045,27.312 C47.9977059,27.312 47.0963815,26.9870033 46.455045,26.337 C45.8137085,25.6869967 45.493045,24.7813391 45.493045,23.62 L45.493045,16.756 L43.231045,16.756 L43.231045,14.312 L45.493045,14.182 L45.493045,10.594 L49.315045,10.594 L49.315045,14.182 L52.877045,14.182 L52.877045,16.756 L49.315045,16.756 Z M57.75261,8.8 L57.75261,13.246 C57.75261,14.1300044 57.6746108,15.0226622 57.51861,15.924 C59.3039523,14.519993 61.0546014,13.818 62.77061,13.818 C63.9319491,13.818 64.8202736,14.1213303 65.43561,14.728 C66.0509464,15.3346697 66.35861,16.2186609 66.35861,17.38 L66.35861,27 L62.53661,27 L62.53661,18.576 C62.53661,18.0039971 62.4456109,17.6096677 62.26361,17.393 C62.0816091,17.1763322 61.7566123,17.068 61.28861,17.068 C60.3699387,17.068 59.1826173,17.4579961 57.72661,18.238 L57.72661,27 L53.87861,27 L53.87861,8.8 L57.75261,8.8 Z M74.380175,13.818 C76.772187,13.818 78.4665034,14.3336615 79.463175,15.365 C80.4598467,16.3963385 80.958175,18.1426544 80.958175,20.604 C80.958175,23.0653456 80.4598467,24.8029949 79.463175,25.817 C78.4665034,26.8310051 76.772187,27.338 74.380175,27.338 C71.9708296,27.338 70.2678467,26.8310051 69.271175,25.817 C68.2745034,24.8029949 67.776175,23.0653456 67.776175,20.604 C67.776175,18.1253209 68.2745034,16.3746718 69.271175,15.352 C70.2678467,14.3293282 71.9708296,13.818 74.380175,13.818 Z M74.380175,16.704 C73.3575032,16.704 72.6728434,16.9639974 72.326175,17.484 C71.9795066,18.0040026 71.806175,19.0439922 71.806175,20.604 C71.806175,22.129341 71.9795066,23.1519974 72.326175,23.672 C72.6728434,24.1920026 73.3575032,24.452 74.380175,24.452 C75.3681799,24.452 76.0398399,24.1920026 76.395175,23.672 C76.7505101,23.1519974 76.928175,22.129341 76.928175,20.604 C76.928175,19.0613256 76.7548434,18.0256693 76.408175,17.497 C76.0615066,16.9683307 75.3855134,16.704 74.380175,16.704 Z M94.62174,14.182 L94.62174,27 L91.57974,27 L91.29374,25.232 C89.5257312,26.636007 87.7577488,27.338 85.98974,27.338 C83.5803946,27.338 82.37574,26.1506785 82.37574,23.776 L82.37574,14.182 L86.22374,14.182 L86.22374,22.606 C86.2064066,23.1606694 86.301739,23.5506655 86.50974,23.776 C86.717741,24.0013345 87.0817374,24.114 87.60174,24.114 C88.3470771,24.114 89.4130664,23.7586702 90.79974,23.048 L90.79974,14.182 L94.62174,14.182 Z M109.611305,15.872 L107.999305,16.08 C108.207306,16.5653358 108.311305,17.1806629 108.311305,17.926 C108.311305,19.4166741 107.864976,20.4739969 106.972305,21.098 C106.079634,21.7220031 104.515316,22.034 102.279305,22.034 C101.533968,22.034 100.797309,21.9906671 100.069305,21.904 C99.861304,22.1813347 99.8223044,22.4933316 99.952305,22.84 C100.082306,23.1866684 100.372636,23.3859997 100.823305,23.438 L105.477305,23.984 C106.794645,24.1400008 107.743635,24.5213303 108.324305,25.128 C108.904975,25.7346697 109.195305,26.6273274 109.195305,27.806 C109.195305,29.4353415 108.705643,30.5359971 107.726305,31.108 C106.746967,31.6800029 104.991984,31.966 102.461305,31.966 C99.8266252,31.966 98.0413097,31.6930027 97.105305,31.147 C96.1693003,30.6009973 95.701305,29.6000073 95.701305,28.144 C95.701305,27.48533 95.8529702,26.9436688 96.156305,26.519 C96.4596399,26.0943312 96.9839679,25.7086684 97.729305,25.362 C97.1399687,24.7899971 96.9016378,24.0836709 97.014305,23.243 C97.1269722,22.4023291 97.5039685,21.7913352 98.145305,21.41 C96.8799653,20.8206637 96.247305,19.6680086 96.247305,17.952 C96.247305,16.4439925 96.6979672,15.3780031 97.599305,14.754 C98.5006428,14.1299969 100.069294,13.818 102.305305,13.818 C103.657312,13.818 104.775301,13.9393321 105.659305,14.182 L109.793305,14.182 L109.611305,15.872 Z M102.279305,19.59 C103.21531,19.59 103.86097,19.4686679 104.216305,19.226 C104.57164,18.9833321 104.749305,18.5500031 104.749305,17.926 C104.749305,17.2846635 104.575973,16.8513345 104.229305,16.626 C103.882637,16.4006655 103.232643,16.288 102.279305,16.288 C101.325967,16.288 100.67164,16.4006655 100.316305,16.626 C99.9609699,16.8513345 99.783305,17.2846635 99.783305,17.926 C99.783305,18.5500031 99.9609699,18.9833321 100.316305,19.226 C100.67164,19.4686679 101.325967,19.59 102.279305,19.59 Z M103.423305,26.506 L100.199305,26.168 C99.6446356,26.6186689 99.367305,27.112664 99.367305,27.65 C99.367305,28.2740031 99.5579698,28.6726658 99.939305,28.846 C100.32064,29.0193342 101.143965,29.106 102.409305,29.106 C103.674645,29.106 104.51097,29.0150009 104.918305,28.833 C105.32564,28.6509991 105.529305,28.2740029 105.529305,27.702 C105.529305,27.2513311 105.399306,26.9653339 105.139305,26.844 C104.879304,26.7226661 104.307309,26.6100005 103.423305,26.506 Z M114.46087,8.8 L114.46087,13.246 C114.46087,14.1300044 114.382871,15.0226622 114.22687,15.924 C116.012212,14.519993 117.762861,13.818 119.47887,13.818 C120.640209,13.818 121.528534,14.1213303 122.14387,14.728 C122.759206,15.3346697 123.06687,16.2186609 123.06687,17.38 L123.06687,27 L119.24487,27 L119.24487,18.576 C119.24487,18.0039971 119.153871,17.6096677 118.97187,17.393 C118.789869,17.1763322 118.464872,17.068 117.99687,17.068 C117.078199,17.068 115.890877,17.4579961 114.43487,18.238 L114.43487,27 L110.58687,27 L110.58687,8.8 L114.46087,8.8 Z M130.022435,16.756 L130.022435,22.814 C130.022435,23.2993358 130.126434,23.6373324 130.334435,23.828 C130.542436,24.0186676 130.906432,24.114 131.426435,24.114 L133.064435,24.114 L133.480435,26.792 C132.49243,27.1386684 131.287775,27.312 129.866435,27.312 C128.705096,27.312 127.803772,26.9870033 127.162435,26.337 C126.521098,25.6869967 126.200435,24.7813391 126.200435,23.62 L126.200435,16.756 L123.938435,16.756 L123.938435,14.312 L126.200435,14.182 L126.200435,10.594 L130.022435,10.594 L130.022435,14.182 L133.584435,14.182 L133.584435,16.756 L130.022435,16.756 Z" id="Re-thought" fill="#5A637C"></path>
                <polygon id="\" fill="#25D0DF" points="42.440435 29.054 38.384435 29.054 30.844435 9.06 34.900435 9.06"></polygon>
            </g>
        </g>
    </g>
</svg>